<?xml version="1.0" encoding="utf-8"?>
<!-- Generator: Adobe Illustrator 28.1.0, SVG Export Plug-In . SVG Version: 6.00 Build 0)  -->
<svg version="1.1" id="Layer_1" xmlns="http://www.w3.org/2000/svg" xmlns:xlink="http://www.w3.org/1999/xlink" x="0px" y="0px"
	 viewBox="0 0 892.4 204.2" style="enable-background:new 0 0 892.4 204.2;" xml:space="preserve">
<style type="text/css">
	.st0{fill:#01C4FF;}
	.st1{fill:#004165;}
</style>
<g>
	<g>
		<path class="st0" d="M689.3,156.7h-26.9V3.3c5.1-0.9,11.2-1.7,18.2-2.3c7-0.6,13.8-1,20.3-1c20.7,0,36.5,4.5,47.4,13.4
			c10.9,8.9,16.3,21.8,16.3,38.5c0,9.1-1.6,16.9-4.9,23.4c-3.3,6.5-7.7,11.9-13.3,16.3c-5.6,4.4-12.3,7.6-20,9.6
			c-7.7,2.1-16.2,3.1-25.3,3.1c-1.9,0-4,0-6.1,0c-2.1,0-4-0.1-5.8-0.4V156.7z M689.3,81c1.2,0.3,2.8,0.4,4.6,0.4c1.8,0,3.6,0,5.4,0
			c12.6,0,22.2-2.4,28.6-7.1c6.4-4.8,9.6-12.2,9.6-22.2c0-8.9-3.1-15.8-9.2-20.7c-6.1-4.9-15.4-7.4-27.7-7.4c-1.6,0-3.4,0-5.5,0
			c-2.1,0-4,0.3-5.8,0.8V81z"/>
		<path class="st0" d="M832.9,132L865.5,40h26.9l-63.2,164.1h-25.6L820,162L771.8,40h27.9L832.9,132z"/>
	</g>
	<g>
		<path class="st1" d="M82.7,156.5L45.6,35.3l-19,121.2H0L25,0h33.5l37.9,124.1L133.6,0h33.7L192,156.5h-26.9l-19-121.2l-37.1,121.2
			H82.7z"/>
		<path class="st1" d="M236.6,156.5h-26.9V0h26.9V156.5z"/>
		<path class="st1" d="M255.8,0h26.9v156.5h-26.9V0z M343.5,0h32.1l-61.4,76.9l65.6,79.6h-32.7l-63.5-77.2L343.5,0z"/>
		<path class="st1" d="M483.7,132.8v23.7h-97.2V0h95.6v23.7h-69v42.1h64V89h-64v43.7H483.7z"/>
	</g>
	<g>
		<path class="st1" d="M513.9,89.1V65.9h45.5V20.4h23.2v45.5h45.5v23.2h-45.5v45.5h-23.2V89.1H513.9z"/>
	</g>
</g>
</svg>
